<svg width="16" height="5" viewBox="0 0 16 5" fill="none" xmlns="http://www.w3.org/2000/svg">
<path d="M4 2.5C4 3.03043 3.78929 3.53914 3.41421 3.91421C3.03914 4.28929 2.53043 4.5 2 4.5C1.46957 4.5 0.960859 4.28929 0.585786 3.91421C0.210714 3.53914 0 3.03043 0 2.5C0 1.96957 0.210714 1.46086 0.585786 1.08579C0.960859 0.710714 1.46957 0.5 2 0.5C2.53043 0.5 3.03914 0.710714 3.41421 1.08579C3.78929 1.46086 4 1.96957 4 2.5ZM10 2.5C10 3.03043 9.78929 3.53914 9.41421 3.91421C9.03914 4.28929 8.53043 4.5 8 4.5C7.46957 4.5 6.96086 4.28929 6.58579 3.91421C6.21071 3.53914 6 3.03043 6 2.5C6 1.96957 6.21071 1.46086 6.58579 1.08579C6.96086 0.710714 7.46957 0.5 8 0.5C8.53043 0.5 9.03914 0.710714 9.41421 1.08579C9.78929 1.46086 10 1.96957 10 2.5V2.5ZM14 4.5C14.5304 4.5 15.0391 4.28929 15.4142 3.91421C15.7893 3.53914 16 3.03043 16 2.5C16 1.96957 15.7893 1.46086 15.4142 1.08579C15.0391 0.710714 14.5304 0.5 14 0.5C13.4696 0.5 12.9609 0.710714 12.5858 1.08579C12.2107 1.46086 12 1.96957 12 2.5C12 3.03043 12.2107 3.53914 12.5858 3.91421C12.9609 4.28929 13.4696 4.5 14 4.5Z" fill="#94A3B8"/>
</svg>
