<svg width="21" height="21" viewBox="0 0 21 21" fill="none" xmlns="http://www.w3.org/2000/svg">
<path d="M7.5 10.5L9.5 12.5L13.5 8.5M19.5 10.5C19.5 11.6819 19.2672 12.8522 18.8149 13.9442C18.3626 15.0361 17.6997 16.0282 16.864 16.864C16.0282 17.6997 15.0361 18.3626 13.9442 18.8149C12.8522 19.2672 11.6819 19.5 10.5 19.5C9.3181 19.5 8.14778 19.2672 7.05585 18.8149C5.96392 18.3626 4.97177 17.6997 4.13604 16.864C3.30031 16.0282 2.63738 15.0361 2.18508 13.9442C1.73279 12.8522 1.5 11.6819 1.5 10.5C1.5 8.11305 2.44821 5.82387 4.13604 4.13604C5.82387 2.44821 8.11305 1.5 10.5 1.5C12.8869 1.5 15.1761 2.44821 16.864 4.13604C18.5518 5.82387 19.5 8.11305 19.5 10.5Z" stroke="#22C55E" stroke-width="2" stroke-linecap="round" stroke-linejoin="round"/>
</svg>
