<svg width="20" height="20" viewBox="0 0 20 20" fill="none" xmlns="http://www.w3.org/2000/svg">
<path d="M8 3.49992H3C2.46957 3.49992 1.96086 3.71063 1.58579 4.0857C1.21071 4.46078 1 4.96948 1 5.49992V16.4999C1 17.0304 1.21071 17.5391 1.58579 17.9141C1.96086 18.2892 2.46957 18.4999 3 18.4999H14C14.5304 18.4999 15.0391 18.2892 15.4142 17.9141C15.7893 17.5391 16 17.0304 16 16.4999V11.4999M14.586 2.08592C14.7705 1.8949 14.9912 1.74253 15.2352 1.63772C15.4792 1.5329 15.7416 1.47772 16.0072 1.47542C16.2728 1.47311 16.5361 1.52371 16.7819 1.62427C17.0277 1.72484 17.251 1.87334 17.4388 2.06113C17.6266 2.24891 17.7751 2.47222 17.8756 2.71801C17.9762 2.9638 18.0268 3.22716 18.0245 3.49272C18.0222 3.75828 17.967 4.02072 17.8622 4.26473C17.7574 4.50874 17.605 4.72942 17.414 4.91392L8.828 13.4999H6V10.6719L14.586 2.08592Z" stroke="#94A3B8" stroke-width="2" stroke-linecap="round" stroke-linejoin="round"/>
</svg>
