<svg width="18" height="21" viewBox="0 0 18 21" fill="none" xmlns="http://www.w3.org/2000/svg">
<path d="M16 5.5L15.133 17.642C15.0971 18.1466 14.8713 18.6188 14.5011 18.9636C14.1309 19.3083 13.6439 19.5 13.138 19.5H4.862C4.35614 19.5 3.86907 19.3083 3.49889 18.9636C3.1287 18.6188 2.90292 18.1466 2.867 17.642L2 5.5M7 9.5V15.5M11 9.5V15.5M12 5.5V2.5C12 2.23478 11.8946 1.98043 11.7071 1.79289C11.5196 1.60536 11.2652 1.5 11 1.5H7C6.73478 1.5 6.48043 1.60536 6.29289 1.79289C6.10536 1.98043 6 2.23478 6 2.5V5.5M1 5.5H17" stroke="#94A3B8" stroke-width="2" stroke-linecap="round" stroke-linejoin="round"/>
</svg>
