<svg width="23" height="24" viewBox="0 0 23 24" fill="none" xmlns="http://www.w3.org/2000/svg">
<path d="M19.4851 6.41517C20.3769 7.29436 21.0856 8.34158 21.5702 9.49631C22.0548 10.651 22.3058 11.8904 22.3085 13.1427C22.3113 14.395 22.0658 15.6354 21.5862 16.7922C21.1067 17.9491 20.4026 18.9994 19.5147 19.8825C18.4159 20.978 17.112 21.8461 15.6775 22.4373C14.243 23.0284 12.706 23.331 11.1544 23.3277C9.43043 23.3315 7.72651 22.9577 6.16246 22.2325C4.59842 21.5073 3.21221 20.4482 2.1013 19.1299C6.73061 22.9539 13.6248 22.7138 17.9709 18.4119C18.6663 17.7263 19.2185 16.9092 19.5954 16.0083C19.9723 15.1074 20.1664 14.1405 20.1664 13.1639C20.1664 12.1873 19.9723 11.2205 19.5954 10.3195C19.2185 9.41861 18.6663 8.60156 17.9709 7.9159C15.0427 5.0172 10.2952 5.0172 7.36699 7.9159C7.0688 8.20973 6.83201 8.55992 6.67039 8.9461C6.50876 9.33228 6.42553 9.74674 6.42553 10.1654C6.42553 10.584 6.50876 10.9985 6.67039 11.3846C6.83201 11.7708 7.0688 12.121 7.36699 12.4148C7.97257 13.0119 8.78883 13.3466 9.63926 13.3466C10.4897 13.3466 11.3059 13.0119 11.9115 12.4148C12.1134 12.2158 12.3855 12.1042 12.669 12.1042C12.9524 12.1042 13.2245 12.2158 13.4264 12.4148C13.5256 12.5128 13.6043 12.6294 13.6581 12.758C13.7118 12.8866 13.7395 13.0245 13.7395 13.1639C13.7395 13.3033 13.7118 13.4413 13.6581 13.5699C13.6043 13.6985 13.5256 13.8151 13.4264 13.913C12.4171 14.9079 11.0568 15.4657 9.63958 15.4657C8.22236 15.4657 6.86206 14.9079 5.85278 13.913C5.35617 13.4232 4.96183 12.8397 4.69268 12.1962C4.42352 11.5527 4.28492 10.8622 4.28492 10.1647C4.28492 9.46724 4.42352 8.77671 4.69268 8.13324C4.96183 7.48978 5.35617 6.90622 5.85278 6.41646C9.61646 2.68874 15.7202 2.68874 19.4851 6.41646V6.41517ZM11.1544 2.82917e-05C12.8784 -0.00374611 14.5822 0.370182 16.1462 1.09552C17.7101 1.82086 19.0962 2.87999 20.2069 4.19845C15.577 0.374406 8.68213 0.615214 4.33858 4.91445V4.91574C3.64307 5.60142 3.09078 6.4185 2.71382 7.31949C2.33686 8.22048 2.14273 9.18742 2.14273 10.1641C2.14273 11.1408 2.33686 12.1077 2.71382 13.0087C3.09078 13.9097 3.64307 14.7268 4.33858 15.4124C7.26553 18.3118 12.0124 18.3118 14.9406 15.4124C15.2387 15.1186 15.4754 14.7685 15.6369 14.3823C15.7985 13.9962 15.8817 13.5818 15.8817 13.1633C15.8817 12.7447 15.7985 12.3303 15.6369 11.9442C15.4754 11.5581 15.2387 11.208 14.9406 10.9141C14.335 10.3171 13.5187 9.98233 12.6683 9.98233C11.8179 9.98233 11.0016 10.3171 10.396 10.9141C10.1942 11.113 9.92226 11.2244 9.63894 11.2244C9.35562 11.2244 9.08367 11.113 8.88184 10.9141C8.78255 10.8162 8.7037 10.6995 8.64989 10.5709C8.59607 10.4422 8.56836 10.3042 8.56836 10.1647C8.56836 10.0253 8.59607 9.88722 8.64989 9.75857C8.7037 9.62992 8.78255 9.51325 8.88184 9.41533C9.89112 8.42041 11.2514 7.86265 12.6686 7.86265C14.0859 7.86265 15.4462 8.42041 16.4554 9.41533C16.952 9.90509 17.3464 10.4887 17.6155 11.1321C17.8847 11.7756 18.0233 12.4661 18.0233 13.1636C18.0233 13.8611 17.8847 14.5516 17.6155 15.1951C17.3464 15.8385 16.952 16.4221 16.4554 16.9119C12.6911 20.6396 6.58741 20.6396 2.82244 16.9119C1.92954 16.0314 1.22028 14.9824 0.735785 13.8258C0.251292 12.6691 0.00119894 11.4278 4.30021e-06 10.1738C-0.00119034 8.91982 0.246537 7.67805 0.728826 6.52049C1.21112 5.36293 1.91837 4.31262 2.8096 3.43043C5.02727 1.22714 8.02833 -0.00653734 11.1544 2.82917e-05Z" fill="url(#paint0_radial_606_2272)"/>
<defs>
<radialGradient id="paint0_radial_606_2272" cx="0" cy="0" r="1" gradientUnits="userSpaceOnUse" gradientTransform="translate(-1.70079 0.704986) rotate(32.7354) scale(22.3048 22.9143)">
<stop stop-color="#00FFC4"/>
<stop offset="1" stop-color="#00E1FF"/>
</radialGradient>
</defs>
</svg>
