<svg width="8" height="14" viewBox="0 0 8 14" fill="none" xmlns="http://www.w3.org/2000/svg">
<g clip-path="url(#clip0_656_882)">
<path d="M1.70711 4.70711C1.31658 5.09763 0.683418 5.09763 0.292893 4.70711C-0.0976311 4.31658 -0.0976311 3.68342 0.292893 3.29289L3.29289 0.292893C3.68342 -0.0976311 4.31658 -0.0976311 4.70711 0.292893L7.70711 3.29289C8.09763 3.68342 8.09763 4.31658 7.70711 4.70711C7.31658 5.09763 6.68342 5.09763 6.29289 4.70711L4 2.41421L1.70711 4.70711Z" fill="#CBD5E1"/>
<path d="M6.29289 9.29289C6.68342 8.90237 7.31658 8.90237 7.70711 9.29289C8.09763 9.68342 8.09763 10.3166 7.70711 10.7071L4.70711 13.7071C4.31658 14.0976 3.68342 14.0976 3.29289 13.7071L0.292893 10.7071C-0.0976311 10.3166 -0.0976311 9.68342 0.292893 9.29289C0.683418 8.90237 1.31658 8.90237 1.70711 9.29289L4 11.5858L6.29289 9.29289Z" fill="#CBD5E1"/>
</g>
<defs>
<clipPath id="clip0_656_882">
<rect width="8" height="14" fill="white"/>
</clipPath>
</defs>
</svg>
